<svg width="29" height="30" viewBox="0 0 29 30" fill="none" xmlns="http://www.w3.org/2000/svg">
<path d="M14.4997 19.8383L20.9881 13.2661L18.8476 11.1548L14.4997 15.5817L10.1519 11.1548L8.01143 13.2661L14.4997 19.8383ZM14.4997 29.2369C12.5376 29.2369 10.6926 28.8624 8.96461 28.1132C7.23662 27.364 5.72602 26.3311 4.43282 25.0144C3.13961 23.6976 2.12512 22.1596 1.38933 20.4002C0.653539 18.6408 0.285645 16.7622 0.285645 14.7644C0.285645 12.7439 0.653539 10.854 1.38933 9.09457C2.12512 7.33517 3.13961 5.80278 4.43282 4.49742C5.72602 3.19205 7.23662 2.15911 8.96461 1.39859C10.6926 0.638071 12.5376 0.257813 14.4997 0.257813C16.4841 0.257813 18.3403 0.638071 20.0683 1.39859C21.7963 2.15911 23.3013 3.19205 24.5834 4.49742C25.8654 5.80278 26.8799 7.33517 27.6269 9.09457C28.3738 10.854 28.7473 12.7439 28.7473 14.7644C28.7473 16.7622 28.3738 18.6408 27.6269 20.4002C26.8799 22.1596 25.8654 23.6976 24.5834 25.0144C23.3013 26.3311 21.7963 27.364 20.0683 28.1132C18.3403 28.8624 16.4841 29.2369 14.4997 29.2369Z" fill="white"/>
</svg>
