<svg width="30" height="30" viewBox="0 0 30 30" fill="none" xmlns="http://www.w3.org/2000/svg">
<path d="M15.2706 9.97702L8.66434 16.4401L10.8437 18.5164L15.2706 14.163L19.6975 18.5164L21.8769 16.4401L15.2706 9.97702ZM15.2706 0.734427C17.2684 0.734427 19.147 1.10279 20.9064 1.83952C22.6658 2.57625 24.2039 3.59204 25.5206 4.8869C26.8373 6.18175 27.8702 7.69428 28.6194 9.42447C29.3686 11.1547 29.7432 13.0021 29.7432 14.9667C29.7432 16.9536 29.3686 18.8122 28.6194 20.5424C27.8702 22.2726 26.8373 23.7795 25.5206 25.0632C24.2039 26.3469 22.6658 27.3627 20.9064 28.1106C19.147 28.8585 17.2684 29.2324 15.2706 29.2324C13.2501 29.2324 11.3602 28.8585 9.6008 28.1106C7.84139 27.3627 6.309 26.3469 5.00364 25.0632C3.69827 23.7795 2.66533 22.2726 1.90481 20.5424C1.1443 18.8122 0.764037 16.9536 0.764037 14.9667C0.764038 13.0021 1.1443 11.1547 1.90481 9.42447C2.66533 7.69428 3.69827 6.18175 5.00364 4.8869C6.30901 3.59204 7.84139 2.57625 9.6008 1.83952C11.3602 1.10279 13.2501 0.734427 15.2706 0.734427Z" fill="white"/>
</svg>
