<svg width="22" height="22" viewBox="0 0 22 22" fill="none" xmlns="http://www.w3.org/2000/svg">
<path d="M11 22C4.92339 22 0 17.0766 0 11C0 4.92339 4.92339 0 11 0C17.0766 0 22 4.92339 22 11C22 17.0766 17.0766 22 11 22ZM12.2819 15.6306L8.93306 12.4194H17.0323C17.6222 12.4194 18.0968 11.9448 18.0968 11.3548V10.6452C18.0968 10.0552 17.6222 9.58064 17.0323 9.58064H8.93306L12.2819 6.36935C12.7121 5.95685 12.721 5.26935 12.2996 4.84798L11.8117 4.36452C11.3948 3.94758 10.7206 3.94758 10.3081 4.36452L4.42218 10.246C4.00524 10.6629 4.00524 11.3371 4.42218 11.7496L10.3081 17.6355C10.725 18.0524 11.3992 18.0524 11.8117 17.6355L12.2996 17.152C12.721 16.7306 12.7121 16.0431 12.2819 15.6306Z" fill="white"/>
</svg>
