<svg width="25" height="25" viewBox="0 0 25 25" fill="none" xmlns="http://www.w3.org/2000/svg">
<path fill-rule="evenodd" clip-rule="evenodd" d="M21.2271 3.54933C20.362 2.68425 18.9594 2.68425 18.0943 3.54934L12.2765 9.36718L6.68215 3.77287C5.81707 2.90778 4.41448 2.90778 3.5494 3.77287C2.68431 4.63795 2.68431 6.04053 3.5494 6.90562L9.14372 12.4999L3.5494 18.0943C2.68431 18.9593 2.68431 20.3619 3.5494 21.227C4.41449 22.0921 5.81707 22.0921 6.68215 21.227L12.2765 15.6327L18.0943 21.4505C18.9594 22.3156 20.362 22.3156 21.2271 21.4505C22.0922 20.5854 22.0922 19.1829 21.2271 18.3178L15.4092 12.4999L21.2271 6.68209C22.0922 5.817 22.0922 4.41442 21.2271 3.54933Z" fill="#156081"/>
</svg>
