<svg width="69" height="28" viewBox="0 0 69 28" fill="none" xmlns="http://www.w3.org/2000/svg">
<path d="M19.1833 8.27271L21.6889 10.7396C21.7944 10.8435 21.7944 11.0131 21.6889 11.117L15.6222 17.0901L13.0444 17.3718C12.7 17.41 12.4083 17.1229 12.4472 16.7837L12.7333 14.2458L18.8 8.27271C18.9056 8.16878 19.0778 8.16878 19.1833 8.27271ZM23.6833 7.64642L22.3278 6.31178C21.9056 5.89607 21.2194 5.89607 20.7944 6.31178L19.8111 7.27994C19.7056 7.38386 19.7056 7.55343 19.8111 7.65736L22.3167 10.1242C22.4222 10.2282 22.5944 10.2282 22.7 10.1242L23.6833 9.15609C24.1056 8.73764 24.1056 8.06212 23.6833 7.64642ZM18.6667 15.4655V18.2497H9.77778V9.49795H16.1611C16.25 9.49795 16.3333 9.4624 16.3972 9.40223L17.5083 8.30826C17.7194 8.10041 17.5694 7.74761 17.2722 7.74761H9.33333C8.59722 7.74761 8 8.33561 8 9.06036V18.6872C8 19.412 8.59722 20 9.33333 20H19.1111C19.8472 20 20.4444 19.412 20.4444 18.6872V14.3716C20.4444 14.0789 20.0861 13.934 19.875 14.1391L18.7639 15.2331C18.7028 15.296 18.6667 15.378 18.6667 15.4655Z" fill="#0AAAAA"/>
<rect x="0.5" y="0.5" width="68" height="27" rx="3.5" stroke="#0AAAAA"/>
<path d="M30.8849 21V10.8182H37.7457V12.593H33.0376V15.0192H37.3928V16.794H33.0376V19.2251H37.7656V21H30.8849ZM42.2314 21.1243C41.6513 21.1243 41.126 20.9751 40.6554 20.6768C40.188 20.3752 39.8168 19.9328 39.5417 19.3494C39.2699 18.7628 39.1341 18.0436 39.1341 17.1918C39.1341 16.3168 39.2749 15.5893 39.5566 15.0092C39.8384 14.4259 40.2129 13.9901 40.6802 13.7017C41.1509 13.41 41.6663 13.2642 42.2264 13.2642C42.6539 13.2642 43.0102 13.3371 43.2953 13.483C43.5836 13.6255 43.8156 13.8045 43.9913 14.0199C44.1703 14.232 44.3062 14.4408 44.399 14.6463H44.4636V10.8182H46.5765V21H44.4885V19.777H44.399C44.2995 19.9891 44.1587 20.1996 43.9764 20.4084C43.7974 20.6139 43.5637 20.7846 43.2754 20.9205C42.9904 21.0563 42.6423 21.1243 42.2314 21.1243ZM42.9025 19.4389C43.2439 19.4389 43.5323 19.3461 43.7676 19.1605C44.0062 18.9716 44.1885 18.7081 44.3145 18.37C44.4437 18.032 44.5083 17.6359 44.5083 17.1818C44.5083 16.7277 44.4454 16.3333 44.3194 15.9986C44.1935 15.6638 44.0112 15.4053 43.7725 15.223C43.5339 15.0407 43.2439 14.9496 42.9025 14.9496C42.5545 14.9496 42.2612 15.044 42.0225 15.233C41.7839 15.4219 41.6033 15.6837 41.4806 16.0185C41.358 16.3532 41.2967 16.741 41.2967 17.1818C41.2967 17.6259 41.358 18.0187 41.4806 18.3601C41.6066 18.6982 41.7872 18.9633 42.0225 19.1555C42.2612 19.3445 42.5545 19.4389 42.9025 19.4389ZM48.3178 21V13.3636H50.4357V21H48.3178ZM49.3817 12.3793C49.0669 12.3793 48.7968 12.2749 48.5714 12.0661C48.3493 11.8539 48.2383 11.6004 48.2383 11.3054C48.2383 11.0137 48.3493 10.7635 48.5714 10.5547C48.7968 10.3426 49.0669 10.2365 49.3817 10.2365C49.6966 10.2365 49.9651 10.3426 50.1871 10.5547C50.4125 10.7635 50.5252 11.0137 50.5252 11.3054C50.5252 11.6004 50.4125 11.8539 50.1871 12.0661C49.9651 12.2749 49.6966 12.3793 49.3817 12.3793ZM56.1941 13.3636V14.9545H51.5953V13.3636H56.1941ZM52.6394 11.5341H54.7573V18.6534C54.7573 18.849 54.7871 19.0014 54.8468 19.1108C54.9064 19.2169 54.9893 19.2914 55.0953 19.3345C55.2047 19.3776 55.3307 19.3991 55.4732 19.3991C55.5726 19.3991 55.6721 19.3909 55.7715 19.3743C55.8709 19.3544 55.9471 19.3395 56.0002 19.3295L56.3333 20.9055C56.2272 20.9387 56.0781 20.9768 55.8858 21.0199C55.6936 21.0663 55.4599 21.0945 55.1848 21.1044C54.6744 21.1243 54.227 21.0563 53.8425 20.9006C53.4614 20.7448 53.1647 20.5028 52.9526 20.1747C52.7405 19.8466 52.6361 19.4323 52.6394 18.9318V11.5341Z" fill="#0AAAAA"/>
</svg>
