<svg width="195" height="68" viewBox="0 0 195 68" fill="none" xmlns="http://www.w3.org/2000/svg">
<path fill-rule="evenodd" clip-rule="evenodd" d="M22.4152 53.4478C34.7948 53.4478 44.8304 43.3556 44.8304 30.9062C44.8304 18.4567 34.7948 8.36447 22.4152 8.36447C10.0356 8.36447 0 18.4567 0 30.9062C0 43.3556 10.0356 53.4478 22.4152 53.4478ZM5.84373 23.2642L11.1197 44.3682H19.3085L22.2762 33.0468H22.496L25.4638 44.3682H33.6525L38.9285 23.2642H31.3443L29.0361 36.0145H28.8712L26.0683 23.2642H18.7039L16.011 36.1244H15.8461L13.4279 23.2642H5.84373Z" fill="#1362E1"/>
<path fill-rule="evenodd" clip-rule="evenodd" d="M71.8174 7.72356C70.5267 5.45411 67.239 5.50372 66.0174 7.81108L63.6656 12.2531C62.9205 13.6605 61.2785 14.3374 59.7581 13.864L55.0849 12.409C52.5166 11.6094 50.1182 14.046 50.9584 16.6014L52.357 20.855C52.8693 22.413 52.1629 24.1111 50.6968 24.8461L46.6147 26.8927C44.1804 28.1131 44.1804 31.5875 46.6147 32.8079L50.6968 34.8545C52.1629 35.5895 52.8693 37.2876 52.357 38.8455L50.9584 43.0992C50.1182 45.6546 52.5166 48.0912 55.0849 47.2916L59.7581 45.8366C61.2785 45.3632 62.9205 46.0401 63.6656 47.4474L65.9137 51.6936C67.1564 54.0408 70.5189 54.0408 71.7617 51.6936L74.0097 47.4474C74.7548 46.0401 76.3968 45.3632 77.9172 45.8366L82.5904 47.2916C85.1587 48.0912 87.5571 45.6546 86.7169 43.0992L85.3183 38.8455C84.806 37.2876 85.5124 35.5895 86.9785 34.8545L91.0606 32.8079C93.4949 31.5875 93.4949 28.1131 91.0606 26.8927L86.9785 24.8461C85.5124 24.1111 84.806 22.413 85.3183 20.855L86.8526 16.1887C87.6655 13.7162 85.4371 11.3165 82.9113 11.9445L77.7291 13.233C76.2897 13.5909 74.788 12.9471 74.0548 11.6578L71.8174 7.72356ZM64.9713 21.8756V42.9796H72.5555V21.8756H64.9713ZM66.1254 18.6606C66.8582 19.3384 67.7375 19.6773 68.7634 19.6773C69.7985 19.6773 70.6778 19.3384 71.4014 18.6606C72.1342 17.9828 72.5006 17.1676 72.5006 16.215C72.5006 15.2623 72.1342 14.4471 71.4014 13.7693C70.6778 13.0915 69.7985 12.7526 68.7634 12.7526C67.7375 12.7526 66.8582 13.0915 66.1254 13.7693C65.3926 14.4471 65.0263 15.2623 65.0263 16.215C65.0263 17.1676 65.3926 17.9828 66.1254 18.6606Z" fill="#EF5C62"/>
<path fill-rule="evenodd" clip-rule="evenodd" d="M127.391 0L92.8791 18.7061L111.48 53.4132L145.993 34.7071L127.391 0ZM107.431 12.8559V40.9945H115.07V33.74L117.598 30.4425L123.918 40.9945H133.041L123.313 25.3864L132.821 12.8559H123.918L115.454 24.2323H115.07V12.8559H107.431Z" fill="#FDC453"/>
<path fill-rule="evenodd" clip-rule="evenodd" d="M193.793 44.56L169.367 2.01364L144.941 44.56H193.793ZM165.583 20.5733V41.6772H173.168V20.5733H165.583ZM166.738 17.3583C167.47 18.0361 168.35 18.375 169.376 18.375C170.411 18.375 171.29 18.0361 172.014 17.3583C172.746 16.6804 173.113 15.8652 173.113 14.9126C173.113 13.96 172.746 13.1448 172.014 12.467C171.29 11.7892 170.411 11.4503 169.376 11.4503C168.35 11.4503 167.47 11.7892 166.738 12.467C166.005 13.1448 165.638 13.96 165.638 14.9126C165.638 15.8652 166.005 16.6804 166.738 17.3583Z" fill="#2CEAD5"/>
<path d="M139.748 67.5831V58.0142C139.748 56.5091 139.575 55.4671 139.227 54.8882C138.834 54.2978 138.18 54.0025 137.265 54.0025C136.096 54.0025 135.291 54.402 134.851 55.2008C134.399 55.9881 134.174 57.6379 134.174 60.1503V67.5831H128.2V58.0142C128.2 56.4512 128.009 55.3976 127.627 54.8535C127.279 54.2862 126.637 54.0025 125.699 54.0025C124.53 54.0025 123.713 54.3904 123.25 55.1661C122.799 55.9534 122.573 57.6148 122.573 60.1503V67.5831H116.564V50.043H122.642V53.0995C123.383 51.8722 124.229 50.9634 125.178 50.3729C126.104 49.7825 127.227 49.4873 128.547 49.4873C129.971 49.4873 131.146 49.7593 132.072 50.3035C132.952 50.8592 133.595 51.687 134 52.7869C134.706 51.6407 135.546 50.8129 136.518 50.3035C137.479 49.7593 138.631 49.4873 139.974 49.4873C141.028 49.4873 141.948 49.6609 142.735 50.0082C143.546 50.3903 144.212 50.9229 144.733 51.606C145.172 52.1501 145.479 52.7927 145.653 53.5336C145.827 54.2167 145.913 55.4266 145.913 57.1632V57.5453V67.5831H139.748ZM150.151 67.5831V50.043H156.333V67.5831H150.151ZM150.932 45.5277H150.967C150.967 44.8793 151.193 44.3468 151.644 43.93C152.096 43.4784 152.64 43.2527 153.277 43.2527C153.948 43.2527 154.498 43.4669 154.927 43.8952C155.367 44.3236 155.587 44.8678 155.587 45.5277C155.587 46.1992 155.361 46.7549 154.909 47.1949C154.469 47.6464 153.925 47.8722 153.277 47.8722C152.617 47.8722 152.061 47.6348 151.61 47.1601C151.158 46.7202 150.932 46.176 150.932 45.5277ZM161.404 67.5831V50.043H167.066V53.6031C167.865 52.2138 168.814 51.1718 169.914 50.4771C170.979 49.8172 172.27 49.4873 173.787 49.4873C174.933 49.4873 175.952 49.6609 176.843 50.0082C177.723 50.4019 178.435 50.9345 178.979 51.606C179.477 52.2775 179.807 52.9895 179.969 53.742C180.166 54.703 180.264 55.9707 180.264 57.5453V67.5831H174.065V58.1879C174.065 56.7638 173.839 55.745 173.387 55.1314C172.936 54.4946 172.201 54.1762 171.182 54.1762C169.908 54.1762 168.97 54.6509 168.368 55.6003C167.778 56.5496 167.483 58.0895 167.483 60.2197V67.5831H161.404ZM184.502 67.5831V50.043H190.684V67.5831H184.502ZM185.283 45.5277H185.318C185.318 44.8793 185.544 44.3468 185.995 43.93C186.447 43.4784 186.991 43.2527 187.628 43.2527C188.299 43.2527 188.849 43.4669 189.278 43.8952C189.718 44.3236 189.938 44.8678 189.938 45.5277C189.938 46.1992 189.712 46.7549 189.26 47.1949C188.82 47.6464 188.276 47.8722 187.628 47.8722C186.968 47.8722 186.412 47.6348 185.961 47.1601C185.509 46.7202 185.283 46.176 185.283 45.5277Z" fill="#1362E1"/>
</svg>
